<svg width="28" height="28" viewBox="0 0 28 28" fill="none" xmlns="http://www.w3.org/2000/svg">
<path d="M22.7754 4.24317C23.1063 3.91894 23.6439 3.91894 23.9747 4.24317C24.3056 4.5674 24.3056 5.09427 23.9747 5.41849L15.3107 13.9092L23.9747 22.3999C24.3056 22.7241 24.3056 23.251 23.9747 23.5752C23.6439 23.8995 23.1063 23.8995 22.7754 23.5752L14.1114 15.0845L5.44744 23.5752C5.1166 23.8995 4.57898 23.8995 4.24813 23.5752C3.91729 23.251 3.91729 22.7241 4.24813 22.3999L12.9121 13.9092L4.24813 5.41849C3.91729 5.09427 3.91729 4.5674 4.24813 4.24317C4.57898 3.91894 5.1166 3.91894 5.44744 4.24317L14.1114 12.7339L22.7754 4.24317V4.24317Z" fill="#4A69BD"/>
</svg>
