<svg width="32" height="33" viewBox="0 0 32 33" fill="none" xmlns="http://www.w3.org/2000/svg">
<path d="M16 32.5C24.8366 32.5 32 25.3366 32 16.5C32 7.66344 24.8366 0.5 16 0.5C7.16344 0.5 0 7.66344 0 16.5C0 25.3366 7.16344 32.5 16 32.5Z" fill="#4282E5"/>
<path fill-rule="evenodd" clip-rule="evenodd" d="M16.6351 26.9215C20.0015 23.6698 24.5347 19.3799 24.5347 14.5097C24.5347 9.71753 20.714 5.83246 16.0014 5.83246C11.2885 5.83246 7.46802 9.71753 7.46802 14.5097C7.46802 19.1171 12.1562 23.7917 15.394 26.9445L15.4037 26.954L15.3947 26.9453C15.56 27.0831 15.7709 27.1658 16.0014 27.1658C16.2444 27.1658 16.4663 27.0734 16.6351 26.9215ZM16.0014 19.8273C13.1686 19.8273 10.8718 17.492 10.8718 14.6112C10.8718 11.7306 13.1686 9.39539 16.0014 9.39539C18.8342 9.39539 21.1309 11.7306 21.1309 14.6112C21.1309 17.492 18.8342 19.8273 16.0014 19.8273Z" fill="white"/>
</svg>
