<svg width="28" height="28" viewBox="0 0 28 28" fill="none" xmlns="http://www.w3.org/2000/svg">
<path d="M14.0606 7.46429H14.0577H14.0548H14.0518C13.9202 7.46429 13.7856 7.42918 13.6627 7.35602C13.5281 7.27409 13.4286 7.15998 13.3671 7.0283C12.6912 5.92517 11.8602 5.17317 10.8975 4.80156C9.93776 4.42995 8.81415 4.42995 7.5413 4.82789C6.44402 5.17317 5.4872 5.86665 4.78494 6.803C4.09438 7.72764 3.64669 8.89514 3.54721 10.209C3.51795 10.6098 3.51795 11.0078 3.55306 11.4145C3.58817 11.8241 3.6584 12.2338 3.76666 12.6493C4.545 15.628 7.06728 17.6178 9.493 19.5314C9.86461 19.824 10.2362 20.1167 10.5171 20.342L10.5405 20.3624C10.6137 20.421 10.681 20.4736 10.7395 20.5234C10.7893 20.5614 10.8302 20.6053 10.8683 20.6551L13.5456 23.0691C13.7183 23.2241 13.9289 23.3032 14.1367 23.3032C14.3415 23.3032 14.5493 23.2271 14.7131 23.0749L17.2939 20.7048C17.3349 20.6404 17.3905 20.579 17.4549 20.5263L17.6012 20.4122C20.4453 18.1591 23.5499 15.6953 24.3458 12.6493C24.6559 11.4613 24.6764 10.1797 24.3809 8.9917C24.1117 7.90613 23.5762 6.90541 22.7511 6.12707C22.4087 5.80228 22.0459 5.53015 21.6713 5.30484C20.6414 4.68744 19.506 4.43287 18.4234 4.55577C17.3466 4.67866 16.3166 5.1761 15.4827 6.0627C15.2135 6.34653 14.9677 6.6684 14.7453 7.0283C14.6839 7.15998 14.5844 7.27409 14.4498 7.35602C14.3269 7.42918 14.1923 7.46429 14.0606 7.46429ZM14.0635 5.36922C14.163 5.24925 14.2654 5.1322 14.3708 5.01809C15.4651 3.85643 16.8258 3.20392 18.2478 3.04006C19.6611 2.87912 21.13 3.20392 22.4526 3.99981C22.9237 4.28072 23.3743 4.62014 23.7957 5.01809C24.8461 6.0071 25.525 7.27117 25.8615 8.62594C26.2185 10.0597 26.1921 11.6018 25.8176 13.0297C24.9047 16.5322 21.6655 19.1335 18.6663 21.5124L15.746 24.1956C15.2866 24.6199 14.7131 24.8306 14.1367 24.8306C13.5632 24.8306 12.9867 24.6199 12.5244 24.2015L9.5603 21.53C9.15357 21.1993 8.85219 20.9623 8.5508 20.7253C5.92611 18.6536 3.20193 16.5029 2.29484 13.0297C2.16025 12.5147 2.07246 12.0231 2.0315 11.5462C1.99053 11.0634 1.99053 10.5806 2.02565 10.0948C2.14854 8.48549 2.7045 7.04293 3.56769 5.89006C4.46307 4.69622 5.68324 3.81547 7.08776 3.37363C8.69711 2.86742 10.1601 2.88498 11.4476 3.38241C12.4454 3.76573 13.3203 4.4358 14.0635 5.36922Z" fill="#4A69BD"/>
</svg>
