<svg width="22" height="22" viewBox="0 0 22 22" fill="none" xmlns="http://www.w3.org/2000/svg">
<path fill-rule="evenodd" clip-rule="evenodd" d="M6.49125 3.51719H4.71508C2.12186 3.51719 0 5.85508 0 8.71312V15.7856C0 18.6433 2.12242 20.9815 4.71508 20.9815H16.8034C19.3967 20.9815 21.5185 18.6427 21.5185 15.7856V8.71312C21.5185 5.856 19.3967 3.51719 16.8034 3.51719H15.0273C14.6556 2.06935 13.4431 1 12.0146 1H9.50388C8.07538 1 6.86208 2.06935 6.49125 3.51719ZM10.7594 16.6993C13.5324 16.6993 15.7803 14.4628 15.7803 11.7039C15.7803 8.94504 13.5324 6.70854 10.7594 6.70854C7.98634 6.70854 5.73837 8.94504 5.73837 11.7039C5.73837 14.4628 7.98634 16.6993 10.7594 16.6993Z" fill="white"/>
</svg>
