<svg width="28" height="28" viewBox="0 0 28 28" fill="none" xmlns="http://www.w3.org/2000/svg">
<path d="M14.1246 3.13544C17.2204 3.13544 20.0236 4.39072 22.0543 6.4185C24.082 8.4492 25.3373 11.2524 25.3373 14.3482C25.3373 16.9875 24.4244 19.4132 22.8999 21.3269L25.5509 23.9779C25.8494 24.2764 25.8494 24.7592 25.5509 25.0576C25.2525 25.3561 24.7697 25.3561 24.4712 25.0576L21.8699 22.4563C19.8568 24.3788 17.1297 25.558 14.1246 25.558C11.0288 25.558 8.22563 24.3056 6.19786 22.2749C4.17008 20.2471 2.91479 17.444 2.91479 14.3482C2.91479 11.2524 4.17008 8.4492 6.19786 6.4185C8.22563 4.39072 11.0288 3.13544 14.1246 3.13544ZM20.9746 7.50115C19.2218 5.74843 16.799 4.66285 14.1246 4.66285C11.4502 4.66285 9.0303 5.74843 7.27758 7.50115C5.52486 9.25094 4.44221 11.6737 4.44221 14.3482C4.44221 17.0226 5.52486 19.4425 7.27758 21.1952C9.0303 22.9479 11.4502 24.0306 14.1246 24.0306C16.799 24.0306 19.2218 22.9479 20.9746 21.1952C22.7273 19.4425 23.8099 17.0226 23.8099 14.3482C23.8099 11.6737 22.7273 9.25094 20.9746 7.50115Z" fill="#4A69BD"/>
</svg>
