<svg width="28" height="28" viewBox="0 0 28 28" fill="none" xmlns="http://www.w3.org/2000/svg">
<path d="M4.29927 7.74659C4.29927 8.15943 3.96129 8.50346 3.54172 8.50346C3.12216 8.50346 2.78418 8.15943 2.78418 7.74659V7.50577C2.78418 6.35901 3.26202 5.32692 4.01956 4.57006C4.78876 3.82466 5.83767 3.35449 7.00312 3.35449H16.3967C17.5621 3.35449 18.611 3.82466 19.3802 4.57006C20.1378 5.32692 20.6156 6.35901 20.6156 7.50577V7.90714C20.6156 8.31998 20.2776 8.65254 19.8581 8.65254C19.4385 8.65254 19.1005 8.31998 19.1005 7.90714V7.50577C19.1005 6.77185 18.7975 6.10672 18.308 5.62508C17.8185 5.14344 17.1426 4.84528 16.3967 4.84528H7.00312C6.25723 4.84528 5.58127 5.14344 5.09178 5.62508C4.60229 6.10672 4.29927 6.77185 4.29927 7.50577V7.74659Z" fill="#4A69BD"/>
<path d="M6.805 8.72217C6.38543 8.72217 6.04745 8.38961 6.04745 7.97677C6.04745 7.56394 6.38543 7.21991 6.805 7.21991H21.6878C22.8533 7.21991 23.9022 7.69008 24.6714 8.44695C25.4289 9.19234 25.9068 10.2359 25.9068 11.3827V21.1875C25.9068 22.3228 25.4289 23.3663 24.6714 24.1117C23.9022 24.8686 22.8533 25.3388 21.6878 25.3388H7.00312C5.83767 25.3388 4.78876 24.8686 4.01956 24.1117C3.26202 23.3663 2.78418 22.3228 2.78418 21.1875V7.97677C2.78418 7.56394 3.12216 7.21991 3.54172 7.21991C3.96129 7.21991 4.29927 7.56394 4.29927 7.97677V21.1875C4.29927 21.9099 4.60229 22.5751 5.09178 23.0567C5.58127 23.5383 6.25723 23.8365 7.00312 23.8365H21.6878C22.4337 23.8365 23.1097 23.5383 23.5992 23.0567C24.0887 22.5751 24.3917 21.9099 24.3917 21.1875V11.3827C24.3917 10.6487 24.0887 9.98361 23.5992 9.50197C23.1097 9.02033 22.4337 8.72217 21.6878 8.72217H6.805Z" fill="#4A69BD"/>
<path d="M18.7518 17.7008C19.5499 17.7008 20.197 17.0641 20.197 16.2788C20.197 15.4935 19.5499 14.8568 18.7518 14.8568C17.9537 14.8568 17.3066 15.4935 17.3066 16.2788C17.3066 17.0641 17.9537 17.7008 18.7518 17.7008Z" fill="#4A69BD"/>
<path d="M3.17959 6.31315C3.00477 5.93472 3.16794 5.49895 3.54088 5.32693C3.92548 5.15492 4.38001 5.31547 4.55483 5.68243C4.77626 6.14113 5.1259 6.53103 5.55712 6.80626C5.97668 7.07001 6.46617 7.21909 7.00228 7.21909H16.3958C16.8154 7.21909 17.1534 7.55165 17.1534 7.96449C17.1534 8.37732 16.8154 8.70988 16.3958 8.70988H7.00228C6.17481 8.70988 5.40561 8.48053 4.7413 8.0677C4.06534 7.64339 3.52923 7.03561 3.17959 6.31315Z" fill="#4A69BD"/>
</svg>
